<?xml version="1.0" standalone="no"?><!DOCTYPE svg PUBLIC "-//W3C//DTD SVG 1.1//EN" "http://www.w3.org/Graphics/SVG/1.1/DTD/svg11.dtd"><svg t="1764742787714" class="icon" viewBox="0 0 1024 1024" version="1.1" xmlns="http://www.w3.org/2000/svg" p-id="44561" xmlns:xlink="http://www.w3.org/1999/xlink" width="200" height="200"><path d="M516.32 65.914c-188.847 0.845-341.807 155.171-340.97 344.04 0.788 177.215 282.975 496.596 315.156 532.418a39.738 39.738 0 0 0 59.44-0.26c31.862-36.11 311.202-357.992 310.415-535.214-0.838-188.862-155.179-341.822-344.04-340.984z m2.197 492.86c-76.484 0.34-139.01-61.614-139.349-138.105-0.34-76.491 61.63-139.002 138.106-139.335 76.513-0.346 139.024 61.608 139.363 138.092 0.34 76.498-61.614 139.002-138.12 139.349z" fill="#0ABC7B" p-id="44562"></path></svg>