<?xml version="1.0" standalone="no"?><!DOCTYPE svg PUBLIC "-//W3C//DTD SVG 1.1//EN" "http://www.w3.org/Graphics/SVG/1.1/DTD/svg11.dtd"><svg t="1764743194390" class="icon" viewBox="0 0 1024 1024" version="1.1" xmlns="http://www.w3.org/2000/svg" p-id="44453" xmlns:xlink="http://www.w3.org/1999/xlink" width="200" height="200"><path d="M964.096 520.704c-0.512-4.096-2.048-7.68-4.608-11.264l-0.512-1.024c-1.536-2.048-3.584-4.096-5.632-5.632l-0.512-0.512-428.032-428.032c-4.608-4.096-10.24-6.656-16.896-6.656s-12.288 2.56-16.896 6.656L62.976 502.272l-0.512 0.512c-2.048 1.536-4.096 3.584-5.632 5.632l-0.512 1.024c-2.56 3.584-4.096 7.168-4.608 11.264-3.072 18.432 12.288 34.816 30.72 34.816h81.92c25.088 0 43.52 17.92 43.52 41.472v276.992c0 37.888 30.72 68.608 68.608 68.608h74.752c37.888 0 68.608-30.72 68.608-68.608v-62.976c0-5.632 4.608-10.24 10.24-10.24h156.672c5.632 0 10.24 4.608 10.24 10.24v62.976c0 37.888 30.72 68.608 68.608 68.608h74.752c37.888 0 68.608-30.72 68.608-68.608v-276.992c0-23.552 18.432-41.472 43.52-41.472h81.92c17.408 0 32.768-16.384 29.696-34.816zM398.336 586.752c-17.408 0-31.232-13.824-31.232-31.232v-30.72c0-17.408 13.824-31.232 31.232-31.232 17.408 0 31.232 13.824 31.232 31.232v30.72c0 17.408-14.336 31.232-31.232 31.232z m197.632 70.656c-11.264 17.92-42.496 48.128-86.528 48.128-44.032 0-74.752-30.72-86.016-48.64-9.216-14.848-4.608-33.792 10.24-43.008 14.336-9.216 33.792-4.608 43.008 9.728 1.024 1.024 13.312 19.456 33.28 19.456 20.48 0 33.792-19.456 33.792-19.456 9.216-14.336 28.672-18.944 43.008-9.216 14.336 9.216 18.432 28.16 9.216 43.008z m56.32-101.888c0 17.408-13.824 31.232-31.232 31.232-17.408 0-31.232-13.824-31.232-31.232v-30.72c0-17.408 13.824-31.232 31.232-31.232 17.408 0 31.232 13.824 31.232 31.232v30.72z" fill="#cdcdcd" p-id="44454"></path></svg>